<?xml version="1.0" encoding="utf-8"?>
<!-- Generator: Adobe Illustrator 23.1.1, SVG Export Plug-In . SVG Version: 6.00 Build 0)  -->
<svg version="1.2" baseProfile="tiny" id="圖層_1"
	 xmlns="http://www.w3.org/2000/svg" xmlns:xlink="http://www.w3.org/1999/xlink" x="0px" y="0px" viewBox="0 0 135.79 135.79"
	 xml:space="preserve">
<g>
	<g>
		<path fill="#EEEFEF" d="M67.89,2c36.33,0,65.89,29.56,65.89,65.89c0,36.33-29.56,65.89-65.89,65.89C31.56,133.79,2,104.23,2,67.89
			C2,31.56,31.56,2,67.89,2 M67.89,0C30.4,0,0,30.4,0,67.89c0,37.5,30.4,67.89,67.89,67.89c37.5,0,67.89-30.4,67.89-67.89
			C135.79,30.4,105.39,0,67.89,0L67.89,0z"/>
	</g>
	<g>
		<path fill="#B4B4B4" d="M49.12,45.62c0-1.6-0.01-3.04,0-4.49c0.03-2.89,1.9-4.88,4.76-4.89c9.39-0.03,18.79-0.03,28.18,0
			c2.63,0.01,4.6,2.06,4.62,4.69c0.01,1.52,0,3.04,0,4.69c0.53,0,0.94,0,1.34,0c3.44,0,6.87-0.02,10.31,0.01
			c2.74,0.03,4.76,1.92,4.78,4.65c0.05,8.48,0.02,16.96,0.01,25.43c0,0.07-0.03,0.15-0.07,0.32c-3.04,0-6.11,0-9.38,0
			c0-0.63,0.01-1.3,0-1.97c-0.03-3.01-1.92-4.93-4.93-4.98c-1.37-0.03-2.75-0.02-4.12,0c-3.04,0.04-4.97,2-5,5.06
			c0,0.61,0,1.22,0,1.91c-7.83,0-15.59,0-23.46,0c0-0.77,0.03-1.48,0-2.2c-0.12-2.77-1.95-4.65-4.72-4.76
			c-1.56-0.06-3.13-0.07-4.7,0c-2.71,0.12-4.51,1.97-4.63,4.69c-0.03,0.72,0,1.45,0,2.26c-3.13,0-6.2,0-9.46,0c0-0.37,0-0.77,0-1.17
			c0-7.98,0.05-15.96-0.03-23.94c-0.03-2.96,1.97-5.46,5.33-5.34C41.62,45.72,45.29,45.62,49.12,45.62z M81.87,41.02
			c-9.35,0-18.61,0-27.92,0c0,1.54,0,3.01,0,4.52c9.34,0,18.59,0,27.92,0C81.87,44.03,81.87,42.59,81.87,41.02z"/>
		<path fill="#B4B4B4" d="M103.09,80.82c0.02,0.46,0.05,0.79,0.05,1.13c0,4.16,0.01,8.33,0,12.49c-0.01,3.19-1.93,5.16-5.12,5.16
			c-11.42,0.02-22.83,0.02-34.25,0.02c-8.51,0-17.03,0-25.54-0.01c-3.77,0-5.58-1.85-5.57-5.64c0.01-3.97,0-7.94,0-11.91
			c0-0.37,0-0.75,0-1.21c3.14,0,6.18,0,9.46,0c0,0.57,0,1.2,0,1.82c0.03,3.31,1.89,5.16,5.19,5.17c1.3,0,2.6,0.01,3.89,0
			c2.91-0.01,4.88-1.93,4.97-4.85c0.02-0.68,0-1.37,0-2.14c7.81,0,15.54,0,23.45,0c0,0.67-0.01,1.34,0,2.01
			c0.05,3.05,2.02,4.98,5.07,4.97c1.37,0,2.75,0.01,4.12,0c2.78-0.02,4.68-1.81,4.84-4.58c0.05-0.79,0.01-1.58,0.01-2.43
			C96.88,80.82,99.92,80.82,103.09,80.82z"/>
		<path fill="#B4B4B4" d="M46.86,73.83c1.55,0,3.02,0,4.56,0c0,3.13,0,6.19,0,9.32c-1.55,0-3.02,0-4.56,0
			C46.86,80.04,46.86,77.01,46.86,73.83z"/>
		<path fill="#B4B4B4" d="M88.93,83.16c-1.52,0-2.96,0-4.51,0c0-3.1,0-6.16,0-9.31c1.47,0,2.94,0,4.51,0
			C88.93,76.9,88.93,79.97,88.93,83.16z"/>
	</g>
</g>
</svg>
