<?xml version="1.0" encoding="utf-8"?>
<!-- Generator: Adobe Illustrator 23.1.1, SVG Export Plug-In . SVG Version: 6.00 Build 0)  -->
<svg version="1.2" baseProfile="tiny" id="圖層_1"
	 xmlns="http://www.w3.org/2000/svg" xmlns:xlink="http://www.w3.org/1999/xlink" x="0px" y="0px" viewBox="0 0 135.79 135.79"
	 xml:space="preserve">
<g>
	<path fill="#EEEFEF" d="M67.89,2c36.33,0,65.89,29.56,65.89,65.89c0,36.33-29.56,65.89-65.89,65.89S2,104.23,2,67.89
		C2,31.56,31.56,2,67.89,2 M67.89,0C30.4,0,0,30.4,0,67.89c0,37.5,30.4,67.89,67.89,67.89s67.89-30.4,67.89-67.89
		C135.79,30.4,105.39,0,67.89,0L67.89,0z"/>
	<path fill="#B4B4B4" d="M99.57,79.92c0-1.49,0.01-2.98,0.01-4.47l0-9.94c0-8.04,0-16.09-0.01-24.13c-0.01-4.64-3.52-8.15-8.18-8.16
		c-4.89-0.01-9.79-0.01-14.68-0.01l-4.89,0l-7.36,0c-6.79-0.01-13.58-0.01-20.37,0.02c-2.94,0.02-5.32,1.46-6.89,4.19
		c-0.89,1.54-1.01,3.19-1.01,4.74c0.01,8.02,0.01,16.04,0.01,24.05l0,7.47l0.01,30.98l0,0.34c0,0.24,0,0.46,0,0.68
		c0.09,4.71,3.57,8.13,8.27,8.13l8.85,0c8.01,0,16.01,0,24.01,0.02h0.03c2.31,0,4.3-0.8,5.91-2.37c2.51-2.44,5.21-5.13,8.5-8.48
		c1.72-1.74,3.51-3.63,5.47-5.76c1.62-1.76,2.39-3.82,2.36-6.29C99.55,87.26,99.56,83.53,99.57,79.92z M93.58,92.83
		c-2.74,0.01-5.48,0.01-8.22,0h-0.01c-1.7,0-3.28,0.65-4.46,1.82c-1.18,1.18-1.83,2.77-1.83,4.48v0.22c0,2.8,0,5.6,0.01,8.44
		c-0.44,0.29-0.87,0.42-1.45,0.42h-0.01c-4.66-0.01-9.33-0.02-13.99-0.02c-2.04,0-4.08,0-6.12,0l-7.33,0c-1.95,0-3.9,0-5.85-0.01
		c-1.38-0.01-2.42-1.02-2.49-2.41c-0.01-0.15,0-0.31,0-0.46c0.01-0.25,0.01-0.49-0.01-0.73l0-30.15c0.01-2.84,0.01-5.69,0-8.53
		l0-2.84l0-6.13c0-5.11,0-10.21,0-15.32c0-1.45,0.71-2.44,1.95-2.72c0.21-0.05,0.45-0.07,0.75-0.07c15.59-0.01,31.19,0,46.78,0
		c1.34,0,2.31,0.7,2.6,1.88c0.05,0.2,0.07,0.45,0.07,0.78c0,7.24,0,14.47,0,21.71v3.34l0.03,0.94l0,4.34c0,6.64,0,13.27,0.01,19.91
		C94,92.1,93.85,92.4,93.58,92.83z M88.92,73.52H47.49c-0.02,0.14-0.05,0.24-0.05,0.35c0,0.89,0,1.79,0,2.72h41.48V73.52z
		 M47.48,82.32h41.46v-3.04H47.48V82.32z M47.46,88.7h41.47v-3.06H47.46V88.7z M50.52,63.97c2.28-2.27,4.56-4.54,6.82-6.83
		c0.15-0.16,0.26-0.44,0.26-0.66c0.02-3.22,0.01-6.44,0.01-9.65c0-0.14-0.02-0.28-0.03-0.41c-3.18-0.2-7.37,2.77-9,6.39
		c-1.75,3.92-0.93,8.51,1.68,11.4C50.37,64.11,50.45,64.04,50.52,63.97z M51.75,65.65c2.46,2.29,6.9,3.45,10.96,1.8
		c4.76-1.94,6.72-6.45,6.75-9.13c-0.1-0.01-0.2-0.03-0.31-0.03c-3.22,0-6.43-0.01-9.65,0.01c-0.22,0-0.48,0.14-0.64,0.29
		c-1.27,1.24-2.52,2.51-3.78,3.77C53.98,63.46,52.86,64.56,51.75,65.65z M59.73,46.42v9.73h9.76
		C69.14,50.76,64.31,46.54,59.73,46.42z M85.63,47.04v20.11h-2.91V49.13h-3.27v18.02h-3.59V53.22h-3.3v14.4h0v0.47h16.37V47.06
		c-0.15-0.01-0.26-0.02-0.38-0.02C87.6,47.04,86.63,47.04,85.63,47.04z"/>
</g>
</svg>
