<?xml version="1.0" encoding="utf-8"?>
<!-- Generator: Adobe Illustrator 23.1.1, SVG Export Plug-In . SVG Version: 6.00 Build 0)  -->
<svg version="1.2" baseProfile="tiny" id="圖層_1"
	 xmlns="http://www.w3.org/2000/svg" xmlns:xlink="http://www.w3.org/1999/xlink" x="0px" y="0px" viewBox="0 0 211.5 30.22"
	 xml:space="preserve">
<g>
	<path fill="#FFFFFF" d="M31.67,14.36L31.67,14.36l5.06,0v0C36.73,6.43,30.3,0,22.37,0c-5.18,0-9.71,2.75-12.24,6.86V0H5.07L0,5.07
		h5.07v23.66h5.07v-6.87c-1.34-2.18-2.13-4.75-2.13-7.5c0-2.99,1.12-5.71,2.94-7.79c0.04-0.05,0.09-0.1,0.14-0.15
		c0.25-0.28,0.52-0.55,0.8-0.8c0.06-0.05,0.11-0.1,0.17-0.16c0.31-0.27,0.63-0.52,0.96-0.76c0.03-0.02,0.05-0.04,0.08-0.06
		c0.37-0.26,0.76-0.5,1.17-0.72c0.02-0.01,0.03-0.01,0.05-0.02c0.36-0.19,0.74-0.36,1.13-0.51c0.12-0.05,0.23-0.09,0.35-0.13
		c0.3-0.11,0.6-0.2,0.9-0.29c0.14-0.04,0.28-0.08,0.43-0.11c0.31-0.07,0.62-0.13,0.93-0.18c0.13-0.02,0.27-0.05,0.41-0.06
		c0.45-0.05,0.9-0.08,1.37-0.08c0.69,0,1.36,0.07,2.01,0.18c0.09,0.02,0.17,0.02,0.26,0.04c0.11,0.02,0.22,0.06,0.33,0.08
		c0.98,0.22,1.92,0.55,2.78,1c0,0,0.01,0,0.01,0c0.32,0.16,0.63,0.34,0.93,0.54c0.03,0.01,0.05,0.03,0.08,0.05
		c0.28,0.18,0.55,0.37,0.81,0.57c0.02,0.02,0.04,0.04,0.07,0.06c0.26,0.21,0.51,0.42,0.76,0.64c0.02,0.02,0.04,0.04,0.06,0.06
		c0.24,0.23,0.48,0.46,0.7,0.71c0.03,0.03,0.05,0.06,0.07,0.09c0.21,0.24,0.42,0.49,0.61,0.75c0.08,0.11,0.15,0.23,0.23,0.34
		c0.13,0.18,0.26,0.36,0.37,0.55c0.12,0.19,0.22,0.4,0.33,0.6c0.06,0.12,0.13,0.23,0.19,0.35c0.11,0.22,0.21,0.46,0.3,0.69
		c0.04,0.1,0.1,0.2,0.14,0.31c0.13,0.33,0.24,0.67,0.33,1.01c0,0.01,0.01,0.02,0.01,0.03c0.2,0.71,0.33,1.46,0.39,2.22
		C31.65,13.72,31.67,14.04,31.67,14.36"/>
	<path fill="#FFFFFF" d="M55.27,18.58V0h-0.84L31.61,22.81H50.2v5.92h5.06v-5.92h5.91v-4.23H55.27z M50.2,18.58h-8.45l8.45-8.44
		V18.58z"/>
	<path fill="#FFFFFF" d="M31.61,22.81l4.57-4.57c0.35-1.23,0.54-2.53,0.54-3.87h-5.06c0,5.13-4.16,9.29-9.29,9.29
		c-5.14,0-9.29-4.17-9.29-9.29c0-5.13,4.15-9.29,9.29-9.29c4.81,0,8.77,3.66,9.25,8.34C31.13,7.32,26.05,2.54,19.83,2.54
		c-6.54,0-11.83,5.3-11.83,11.83c0,7.93,6.43,14.36,14.36,14.36c4.77,0,8.98-2.34,11.6-5.92H31.61z"/>
	<path fill="#EE761C" d="M31.61,22.81l4.57-4.57c0.35-1.23,0.54-2.53,0.54-3.87h-5.06c0,5.13-4.16,9.29-9.29,9.29
		c-5.14,0-9.29-4.17-9.29-9.29c0-5.13,4.15-9.29,9.29-9.29c4.81,0,8.77,3.66,9.25,8.34C31.13,7.32,26.05,2.54,19.83,2.54
		c-6.54,0-11.83,5.3-11.83,11.83c0,7.93,6.43,14.36,14.36,14.36c4.77,0,8.98-2.34,11.6-5.92H31.61z"/>
	<text transform="matrix(1 0 0 1 67.6304 24.4837)" fill="#FFFFFF" font-family="'DFLiHei-Md-WIN-BF'" font-size="28.7732px">薪酬白皮書</text>
</g>
</svg>
