<?xml version="1.0" encoding="utf-8"?>
<!-- Generator: Adobe Illustrator 23.1.1, SVG Export Plug-In . SVG Version: 6.00 Build 0)  -->
<svg version="1.2" baseProfile="tiny" id="圖層_1"
	 xmlns="http://www.w3.org/2000/svg" xmlns:xlink="http://www.w3.org/1999/xlink" x="0px" y="0px" viewBox="0 0 35.3 35.3"
	 xml:space="preserve">
<g>
	<path fill="none" stroke="#FFFFFF" stroke-miterlimit="10" d="M31.49,27.77c0.05-0.07,0.1-0.15,0.15-0.22
		c0.25-0.35,0.48-0.7,0.7-1.07c0.03-0.06,0.06-0.11,0.1-0.17c0.22-0.37,0.42-0.75,0.61-1.14c0.01-0.03,0.03-0.06,0.05-0.09
		c0.19-0.4,0.37-0.81,0.53-1.23c0.03-0.07,0.05-0.13,0.08-0.2c0.15-0.41,0.29-0.82,0.41-1.24c0.02-0.08,0.05-0.16,0.07-0.25
		c0.11-0.42,0.21-0.85,0.3-1.28c0.02-0.08,0.03-0.16,0.04-0.24c0.08-0.45,0.14-0.89,0.19-1.35c0.01-0.06,0.01-0.12,0.01-0.18
		c0.04-0.48,0.07-0.97,0.07-1.47c0,0,0,0,0,0c0,0,0,0,0,0s0,0,0,0c0,0,0,0,0,0c0-0.49-0.03-0.98-0.07-1.47
		c0-0.06-0.01-0.12-0.01-0.18c-0.04-0.46-0.11-0.91-0.19-1.35c-0.01-0.08-0.03-0.16-0.04-0.24c-0.08-0.43-0.18-0.86-0.3-1.28
		c-0.02-0.08-0.05-0.16-0.07-0.25c-0.12-0.42-0.26-0.83-0.41-1.24c-0.03-0.07-0.05-0.14-0.08-0.2c-0.16-0.42-0.34-0.83-0.53-1.23
		c-0.01-0.03-0.03-0.06-0.05-0.09c-0.19-0.39-0.4-0.77-0.61-1.14c-0.03-0.06-0.06-0.11-0.1-0.17c-0.22-0.37-0.46-0.72-0.7-1.07
		c-0.05-0.07-0.1-0.15-0.15-0.22c-0.24-0.33-0.5-0.66-0.77-0.97c-0.06-0.07-0.12-0.14-0.19-0.22c-0.27-0.31-0.56-0.61-0.85-0.9
		c-0.06-0.06-0.13-0.12-0.19-0.18c-0.31-0.29-0.62-0.58-0.95-0.85c-0.04-0.04-0.09-0.07-0.13-0.11c-0.32-0.26-0.64-0.5-0.98-0.73
		c-0.06-0.04-0.11-0.08-0.16-0.12c-0.35-0.24-0.71-0.46-1.07-0.67c-0.08-0.05-0.16-0.09-0.24-0.14c-0.36-0.2-0.73-0.39-1.1-0.56
		C24.75,2.04,24.66,2,24.57,1.96c-0.38-0.17-0.76-0.32-1.16-0.46c-0.09-0.03-0.18-0.06-0.27-0.09c-0.41-0.14-0.82-0.26-1.24-0.37
		C21.83,1.01,21.76,1,21.69,0.98c-0.4-0.1-0.81-0.18-1.23-0.25c-0.05-0.01-0.09-0.02-0.14-0.03h-0.02
		c-0.87-0.14-1.76-0.21-2.66-0.21c-0.9,0-1.79,0.07-2.66,0.21h-0.02c-0.05,0.01-0.09,0.02-0.14,0.03c-0.41,0.07-0.82,0.15-1.23,0.25
		C13.54,1,13.47,1.01,13.4,1.03c-0.42,0.11-0.83,0.23-1.24,0.37c-0.09,0.03-0.18,0.06-0.27,0.09c-0.39,0.14-0.78,0.3-1.16,0.46
		C10.64,2,10.55,2.04,10.45,2.08c-0.38,0.17-0.74,0.36-1.1,0.56C9.27,2.69,9.19,2.74,9.11,2.78C8.74,2.99,8.38,3.21,8.03,3.45
		C7.97,3.49,7.92,3.53,7.87,3.57C7.53,3.8,7.21,4.04,6.89,4.3C6.84,4.34,6.8,4.37,6.76,4.41C6.43,4.68,6.11,4.96,5.8,5.26
		C5.74,5.32,5.68,5.38,5.61,5.44c-0.29,0.29-0.58,0.59-0.85,0.9C4.7,6.41,4.64,6.48,4.58,6.56C4.31,6.87,4.05,7.2,3.81,7.53
		C3.75,7.6,3.7,7.68,3.65,7.75c-0.25,0.35-0.48,0.7-0.7,1.07c-0.03,0.06-0.06,0.11-0.1,0.17c-0.22,0.37-0.42,0.75-0.61,1.13
		c-0.02,0.03-0.03,0.06-0.05,0.09c-0.19,0.4-0.37,0.81-0.53,1.23c-0.03,0.07-0.05,0.13-0.08,0.2c-0.15,0.41-0.29,0.82-0.41,1.24
		c-0.02,0.08-0.05,0.16-0.07,0.25c-0.11,0.42-0.21,0.85-0.3,1.28c-0.02,0.08-0.03,0.16-0.04,0.24C0.69,15.1,0.62,15.55,0.58,16
		c-0.01,0.06-0.01,0.12-0.01,0.18c-0.04,0.48-0.07,0.97-0.07,1.47c0,0,0,0,0,0c0,0,0,0,0,0s0,0,0,0c0,0,0,0,0,0
		c0,0.49,0.03,0.98,0.07,1.47c0,0.06,0.01,0.12,0.01,0.18c0.04,0.46,0.11,0.91,0.19,1.35c0.01,0.08,0.03,0.16,0.04,0.24
		c0.08,0.43,0.18,0.86,0.3,1.28c0.02,0.08,0.05,0.16,0.07,0.25c0.12,0.42,0.26,0.83,0.41,1.24c0.03,0.07,0.05,0.14,0.08,0.2
		c0.16,0.42,0.34,0.83,0.53,1.23c0.02,0.03,0.03,0.06,0.05,0.09c0.19,0.39,0.39,0.76,0.61,1.13c0.03,0.06,0.06,0.11,0.1,0.17
		c0.22,0.37,0.46,0.72,0.7,1.07c0.05,0.07,0.1,0.15,0.15,0.22c0.24,0.33,0.5,0.66,0.77,0.97c0.06,0.07,0.12,0.14,0.19,0.22
		c0.27,0.31,0.56,0.61,0.85,0.9c0.06,0.06,0.13,0.12,0.19,0.18c0.31,0.29,0.62,0.58,0.95,0.85C6.8,30.93,6.84,30.96,6.89,31
		c0.32,0.26,0.64,0.5,0.98,0.73c0.05,0.04,0.11,0.08,0.16,0.12c0.35,0.24,0.71,0.46,1.08,0.67c0.08,0.05,0.16,0.09,0.24,0.14
		c0.36,0.2,0.73,0.39,1.1,0.56c0.09,0.04,0.19,0.08,0.28,0.13c0.38,0.17,0.76,0.32,1.16,0.46c0.09,0.03,0.18,0.06,0.27,0.09
		c0.41,0.14,0.82,0.26,1.24,0.37c0.07,0.02,0.14,0.03,0.21,0.05c0.4,0.1,0.81,0.18,1.23,0.25c0.05,0.01,0.09,0.02,0.14,0.03h0.02
		c0.87,0.14,1.76,0.21,2.66,0.21c0.91,0,1.79-0.07,2.66-0.21h0.02c0.05-0.01,0.09-0.02,0.14-0.03c0.41-0.07,0.82-0.15,1.23-0.25
		c0.07-0.02,0.14-0.03,0.21-0.05c0.42-0.11,0.83-0.23,1.24-0.37c0.09-0.03,0.18-0.06,0.27-0.09c0.39-0.14,0.78-0.29,1.16-0.46
		c0.09-0.04,0.19-0.08,0.28-0.13c0.38-0.17,0.74-0.36,1.1-0.56c0.08-0.05,0.16-0.09,0.24-0.14c0.37-0.21,0.73-0.43,1.07-0.67
		c0.06-0.04,0.11-0.08,0.16-0.12c0.33-0.23,0.66-0.48,0.98-0.73c0.04-0.04,0.09-0.07,0.13-0.11c0.33-0.27,0.64-0.56,0.95-0.85
		c0.06-0.06,0.13-0.12,0.19-0.18c0.29-0.29,0.58-0.59,0.85-0.9c0.06-0.07,0.13-0.14,0.19-0.22C30.99,28.43,31.25,28.1,31.49,27.77z"
		/>
	<g>
		<path fill="#FFFFFF" d="M26.07,25.13c-2.65,0-5.3,0-7.95,0c-0.02,0-0.03,0-0.05,0c-0.56,0-1.11,0-1.67,0c-0.84,0-1.68,0-2.51,0
			c-1.5,0-2.99,0-4.49,0c-0.18,0-0.35-0.02-0.53-0.07c-0.49-0.13-0.89-0.38-1.2-0.77c-0.24-0.3-0.39-0.63-0.45-1
			c-0.01-0.08-0.02-0.15-0.03-0.23c0-1.17,0-2.34,0-3.51c0-0.03,0-0.05,0-0.08c0-0.46,0-0.91,0-1.37c0-1.55,0-3.11,0-4.66
			c0-0.03,0-0.06-0.01-0.09c0-0.36,0-0.72,0-1.08c0.01-0.06,0.02-0.12,0.03-0.18c0.07-0.46,0.26-0.85,0.58-1.19
			c0.45-0.47,1-0.71,1.65-0.71c4.21,0,8.42,0,12.63,0c1.3,0,2.59,0,3.89,0c0.16,0,0.32,0.02,0.48,0.06c0.81,0.21,1.35,0.71,1.63,1.5
			c0.04,0.11,0.07,0.22,0.07,0.33c0,3.62,0,7.24,0,10.86c0,0.09-0.01,0.19-0.02,0.28c-0.06,0.42-0.22,0.8-0.5,1.12
			c-0.35,0.42-0.79,0.68-1.33,0.78C26.21,25.11,26.14,25.12,26.07,25.13z M9.39,11.35c0.02,0.02,0.03,0.03,0.04,0.04
			c0.33,0.33,0.67,0.67,1,1c2.33,2.32,4.65,4.64,6.98,6.97c0.17,0.17,0.39,0.17,0.56,0c0.12-0.12,0.25-0.25,0.37-0.37
			c2.53-2.53,5.07-5.06,7.6-7.6c0.01-0.01,0.03-0.02,0.05-0.02c-0.01-0.01-0.01-0.01-0.02-0.02C20.45,11.35,14.92,11.35,9.39,11.35z
			 M15.48,19.01c-1.66,1.66-3.32,3.33-4.98,4.99c4.75,0,9.51,0,14.27,0c-1.64-1.64-3.28-3.28-4.92-4.92
			c-0.01,0.01-0.02,0.03-0.03,0.04c-0.61,0.61-1.23,1.23-1.84,1.84c-0.17,0.17-0.39,0.17-0.56,0c-0.52-0.52-1.04-1.04-1.55-1.56
			C15.73,19.26,15.6,19.14,15.48,19.01z M20.65,18.29c0.01,0.01,0.02,0.02,0.03,0.03c0.53,0.53,1.06,1.06,1.59,1.6
			c1.33,1.34,2.67,2.67,4,4.01c0.02,0.02,0.04,0.03,0.07,0.02c0.29-0.09,0.48-0.28,0.58-0.57c0.07-0.19,0.08-0.39,0.08-0.6
			c0-2.27,0-4.54,0-6.81c0-1.32,0-2.65,0-3.97c0-0.02,0-0.04,0-0.06C24.88,14.05,22.77,16.17,20.65,18.29z M8.43,11.98
			c0,0.03,0,0.04,0,0.06c0,3.66,0,7.31,0,10.97c0,0.11,0.01,0.23,0.03,0.34c0.05,0.27,0.2,0.47,0.46,0.57
			C8.95,23.93,8.97,23.93,9,23.9c1.88-1.88,3.76-3.76,5.65-5.64c0.01-0.01,0.03-0.02,0.04-0.02C12.59,16.14,10.51,14.06,8.43,11.98z
			"/>
	</g>
</g>
</svg>
