<?xml version="1.0" encoding="utf-8"?>
<!-- Generator: Adobe Illustrator 23.1.1, SVG Export Plug-In . SVG Version: 6.00 Build 0)  -->
<svg version="1.2" baseProfile="tiny" id="圖層_1"
	 xmlns="http://www.w3.org/2000/svg" xmlns:xlink="http://www.w3.org/1999/xlink" x="0px" y="0px" viewBox="0 0 29.74 10.32"
	 xml:space="preserve">
<g>
	<path fill="#595757" d="M1.25,5.16c0-2.27,1.86-4.12,4.13-4.12h18.98c2.27,0,4.12,1.86,4.12,4.12c0,2.27-1.86,4.13-4.12,4.13H5.38
		C3.11,9.28,1.25,7.43,1.25,5.16z"/>
	<path fill="#B5B5B6" d="M1.25,5.16c0-2.27,1.86-4.12,4.13-4.12h6.01c2.27,0,4.12,1.86,4.12,4.12c0,2.27-1.86,4.13-4.12,4.13H5.38
		C3.11,9.28,1.25,7.43,1.25,5.16z"/>
	<path fill="#FFFFFF" d="M1.51,8.8c0.94,0.93,2.22,1.51,3.64,1.51h19.42c2.84,0,5.16-2.32,5.16-5.16c0-1.42-0.58-2.71-1.51-3.64
		C27.29,0.58,26,0,24.58,0H5.16C2.32,0,0,2.32,0,5.16C0,6.58,0.58,7.87,1.51,8.8z M5.38,1.03h18.98c2.27,0,4.12,1.86,4.12,4.12
		c0,2.27-1.86,4.13-4.12,4.13H5.38c-2.27,0-4.13-1.86-4.13-4.13C1.25,2.89,3.11,1.03,5.38,1.03z"/>
</g>
</svg>
