<?xml version="1.0" encoding="utf-8"?>
<!-- Generator: Adobe Illustrator 23.1.1, SVG Export Plug-In . SVG Version: 6.00 Build 0)  -->
<svg version="1.2" baseProfile="tiny" id="圖層_1"
	 xmlns="http://www.w3.org/2000/svg" xmlns:xlink="http://www.w3.org/1999/xlink" x="0px" y="0px" viewBox="0 0 60.93 60.92"
	 xml:space="preserve">
<g>
	<radialGradient id="SVGID_1_" cx="30.4627" cy="30.4608" r="30.4617" gradientUnits="userSpaceOnUse">
		<stop  offset="0.3248" style="stop-color:#FFFFFF"/>
		<stop  offset="0.7244" style="stop-color:#FEFEFE"/>
		<stop  offset="0.8682" style="stop-color:#FAFAFA"/>
		<stop  offset="0.9704" style="stop-color:#F2F2F3"/>
		<stop  offset="1" style="stop-color:#EFEFEF"/>
	</radialGradient>
	<path fill="url(#SVGID_1_)" d="M55.05,48.43c0.09-0.13,0.18-0.26,0.28-0.39c0.44-0.62,0.86-1.25,1.25-1.89
		c0.06-0.1,0.11-0.2,0.17-0.3c0.39-0.66,0.75-1.33,1.09-2.02c0.03-0.05,0.06-0.11,0.08-0.16c0.34-0.71,0.65-1.45,0.94-2.19
		c0.05-0.12,0.1-0.24,0.14-0.36c0.27-0.72,0.51-1.46,0.72-2.2c0.04-0.15,0.08-0.29,0.12-0.44c0.2-0.75,0.38-1.51,0.53-2.27
		c0.03-0.14,0.05-0.29,0.08-0.43c0.14-0.79,0.25-1.59,0.33-2.4c0.01-0.1,0.01-0.21,0.02-0.31c0.07-0.86,0.12-1.73,0.12-2.6
		c0,0,0,0,0,0c0,0,0,0,0,0s0,0,0,0c0,0,0,0,0,0c0-0.88-0.05-1.75-0.12-2.6c-0.01-0.1-0.01-0.21-0.02-0.31
		c-0.08-0.81-0.19-1.61-0.33-2.4c-0.03-0.14-0.05-0.29-0.08-0.43c-0.15-0.77-0.32-1.53-0.53-2.27c-0.04-0.15-0.08-0.29-0.12-0.44
		c-0.22-0.75-0.45-1.48-0.72-2.2c-0.05-0.12-0.1-0.24-0.14-0.36c-0.29-0.74-0.6-1.48-0.94-2.19c-0.03-0.05-0.06-0.11-0.08-0.16
		c-0.34-0.69-0.7-1.36-1.09-2.02c-0.06-0.1-0.11-0.2-0.17-0.3c-0.39-0.65-0.81-1.28-1.25-1.89c-0.09-0.13-0.18-0.26-0.28-0.39
		c-0.43-0.59-0.89-1.17-1.37-1.73c-0.11-0.13-0.22-0.26-0.33-0.38c-0.48-0.55-0.99-1.09-1.51-1.6c-0.11-0.11-0.22-0.21-0.34-0.32
		c-0.55-0.52-1.11-1.03-1.69-1.51c-0.08-0.06-0.16-0.12-0.24-0.19c-0.56-0.45-1.14-0.89-1.73-1.3c-0.1-0.07-0.19-0.14-0.29-0.21
		c-0.62-0.42-1.26-0.81-1.91-1.19c-0.14-0.08-0.29-0.17-0.43-0.25c-0.64-0.35-1.29-0.68-1.96-0.99c-0.17-0.08-0.33-0.15-0.5-0.23
		c-0.67-0.3-1.36-0.57-2.05-0.82c-0.16-0.06-0.32-0.11-0.49-0.16c-0.72-0.24-1.45-0.47-2.2-0.66c-0.12-0.03-0.25-0.06-0.37-0.09
		c-0.72-0.17-1.44-0.32-2.18-0.44c-0.08-0.01-0.16-0.04-0.25-0.05h-0.03C33.65,0.13,32.07,0,30.46,0c-1.61,0-3.19,0.13-4.73,0.37
		H25.7c-0.08,0.01-0.16,0.04-0.25,0.05c-0.74,0.12-1.46,0.27-2.18,0.44c-0.12,0.03-0.25,0.05-0.37,0.08
		c-0.74,0.19-1.48,0.41-2.2,0.66c-0.16,0.05-0.32,0.11-0.48,0.16c-0.7,0.25-1.38,0.52-2.05,0.82c-0.17,0.07-0.33,0.15-0.5,0.22
		c-0.67,0.31-1.32,0.64-1.96,0.99c-0.15,0.08-0.29,0.17-0.43,0.25C14.63,4.43,14,4.82,13.38,5.24c-0.1,0.07-0.19,0.14-0.29,0.21
		c-0.59,0.41-1.17,0.85-1.74,1.3c-0.08,0.06-0.16,0.12-0.24,0.19c-0.59,0.48-1.15,0.99-1.69,1.51C9.31,8.56,9.19,8.66,9.08,8.77
		c-0.52,0.52-1.03,1.05-1.51,1.61c-0.11,0.13-0.22,0.25-0.33,0.38c-0.48,0.56-0.93,1.14-1.37,1.73c-0.09,0.13-0.18,0.26-0.27,0.39
		c-0.44,0.62-0.86,1.25-1.25,1.9c-0.06,0.1-0.11,0.2-0.17,0.3c-0.39,0.66-0.75,1.33-1.09,2.01c-0.03,0.05-0.06,0.11-0.08,0.16
		c-0.34,0.71-0.65,1.45-0.94,2.19c-0.05,0.12-0.1,0.24-0.14,0.36C1.66,20.51,1.42,21.25,1.2,22c-0.04,0.15-0.08,0.29-0.12,0.44
		c-0.2,0.75-0.38,1.51-0.53,2.28c-0.03,0.14-0.05,0.28-0.08,0.43c-0.14,0.79-0.25,1.59-0.33,2.4c-0.01,0.1-0.01,0.21-0.02,0.31
		C0.05,28.71,0,29.58,0,30.45c0,0,0,0,0,0c0,0,0,0,0,0s0,0,0,0c0,0,0,0,0,0c0,0.88,0.05,1.75,0.12,2.6c0.01,0.1,0.01,0.21,0.02,0.31
		c0.08,0.81,0.19,1.61,0.33,2.4c0.03,0.14,0.05,0.29,0.08,0.43c0.15,0.77,0.32,1.53,0.53,2.28c0.04,0.15,0.08,0.29,0.12,0.44
		c0.22,0.75,0.45,1.48,0.72,2.2c0.05,0.12,0.1,0.24,0.14,0.36c0.29,0.74,0.6,1.48,0.94,2.19c0.03,0.06,0.06,0.11,0.08,0.16
		c0.34,0.69,0.7,1.36,1.09,2.01c0.06,0.1,0.11,0.2,0.17,0.3c0.39,0.65,0.81,1.28,1.25,1.9c0.09,0.13,0.18,0.26,0.27,0.39
		c0.43,0.59,0.89,1.17,1.37,1.73c0.11,0.13,0.22,0.26,0.33,0.38c0.49,0.55,0.99,1.09,1.51,1.61c0.11,0.11,0.22,0.21,0.33,0.32
		c0.55,0.52,1.11,1.03,1.69,1.51c0.08,0.06,0.16,0.12,0.24,0.19c0.56,0.45,1.14,0.89,1.74,1.3c0.1,0.07,0.19,0.14,0.29,0.21
		c0.62,0.42,1.26,0.81,1.91,1.19c0.14,0.08,0.29,0.17,0.43,0.25c0.64,0.35,1.29,0.68,1.96,0.99c0.16,0.08,0.33,0.15,0.5,0.22
		c0.67,0.3,1.36,0.57,2.05,0.82c0.16,0.06,0.32,0.11,0.48,0.16c0.72,0.24,1.45,0.47,2.2,0.66c0.12,0.03,0.25,0.06,0.37,0.08
		c0.72,0.17,1.44,0.32,2.18,0.44c0.08,0.01,0.16,0.04,0.25,0.05h0.03c1.54,0.24,3.12,0.37,4.73,0.37c1.61,0,3.19-0.13,4.73-0.37
		h0.03c0.08-0.01,0.16-0.04,0.25-0.05c0.74-0.12,1.46-0.27,2.18-0.44c0.12-0.03,0.25-0.05,0.37-0.09c0.74-0.19,1.47-0.41,2.2-0.66
		c0.16-0.05,0.32-0.11,0.49-0.16c0.7-0.25,1.38-0.52,2.05-0.82c0.17-0.07,0.33-0.15,0.5-0.23c0.67-0.31,1.32-0.64,1.96-0.99
		c0.15-0.08,0.29-0.17,0.43-0.25c0.65-0.37,1.29-0.77,1.91-1.19c0.1-0.07,0.19-0.14,0.29-0.21c0.59-0.41,1.17-0.85,1.73-1.3
		c0.08-0.06,0.16-0.12,0.24-0.19c0.58-0.48,1.15-0.99,1.69-1.51c0.11-0.11,0.23-0.21,0.34-0.32c0.52-0.52,1.02-1.05,1.51-1.6
		c0.11-0.13,0.22-0.26,0.33-0.38C54.16,49.6,54.62,49.03,55.05,48.43z"/>
	<g>
		<g>
			
				<polyline fill="none" stroke="#9FA0A0" stroke-width="3" stroke-linecap="round" stroke-linejoin="round" stroke-miterlimit="10" points="
				42.77,32.94 42.77,43.59 18.16,43.59 18.16,32.94 			"/>
		</g>
		<g>
			
				<polyline fill="none" stroke="#9FA0A0" stroke-width="3" stroke-linecap="round" stroke-linejoin="round" stroke-miterlimit="10" points="
				38.9,26.12 30.46,34.56 22.03,26.12 			"/>
			
				<line fill="none" stroke="#9FA0A0" stroke-width="3" stroke-linecap="round" stroke-linejoin="round" stroke-miterlimit="10" x1="30.46" y1="32.99" x2="30.46" y2="17.34"/>
		</g>
	</g>
</g>
</svg>
