<?xml version="1.0" encoding="utf-8"?>
<!-- Generator: Adobe Illustrator 23.1.1, SVG Export Plug-In . SVG Version: 6.00 Build 0)  -->
<svg version="1.2" baseProfile="tiny" id="圖層_1"
	 xmlns="http://www.w3.org/2000/svg" xmlns:xlink="http://www.w3.org/1999/xlink" x="0px" y="0px" viewBox="0 0 135.79 135.79"
	 xml:space="preserve">
<g>
	<g>
		<path fill="#EEEFEF" d="M67.89,2c36.33,0,65.89,29.56,65.89,65.89c0,36.33-29.56,65.89-65.89,65.89C31.56,133.79,2,104.23,2,67.89
			C2,31.56,31.56,2,67.89,2 M67.89,0C30.4,0,0,30.4,0,67.89c0,37.5,30.4,67.89,67.89,67.89c37.5,0,67.89-30.4,67.89-67.89
			C135.79,30.4,105.39,0,67.89,0L67.89,0z"/>
	</g>
	<g>
		<path fill="#B4B4B4" d="M106.98,76.43c0,2.15-0.02,4.3,0.01,6.45c0.03,2.65-0.57,4.97-2.93,6.58c-0.47,0.33-0.74,1.05-0.96,1.64
			c-1.78,4.79-5.11,7.63-10.21,8.44c-0.93,0.15-2,0.65-2.6,1.34c-7.87,9.15-17.86,12.9-29.61,10.72
			c-12.06-2.24-19.87-9.82-24.06-21.27c-0.36-0.99-1.22-1.98-2.11-2.58c-6.09-4.07-7.38-10.63-3.53-16.81
			c0.87-1.39,0.78-3.49,0.81-5.27c0.12-7.71,2.15-14.81,6.94-20.88c9.1-11.53,21.09-16.31,35.38-12.9
			c14.13,3.38,22.77,12.81,25.83,27.13c0.38,1.78,0.45,3.33,3.03,3.66c2.56,0.33,3.93,2.88,4,5.96
			C107.02,71.24,106.97,73.84,106.98,76.43z M91.4,90.29c0-8.36,0-16.43,0-24.68c-5.91-1.15-12.16-1.36-15.85-7.08
			c-4.95,4.75-9.07,6.41-16.05,6.6c-4.52,0.12-9.04,0.23-13.56,0.43c-3.66,0.17-4.5,1.1-4.85,4.56c-0.06,0.59-0.71,1.4-1.27,1.6
			c-2.97,1.07-4.88,3.34-4.91,6.12c-0.02,2.84,1.5,4.9,4.7,5.98c1.36,0.46,1.91,1.21,2.26,2.57c3.53,13.65,15.23,21.36,29.18,19.16
			c4.27-0.67,8.07-2.51,11.65-5.72c-0.93-0.06-1.42-0.11-1.91-0.11c-4.23-0.01-8.46,0.04-12.68-0.03c-2.5-0.04-4.33-1.5-4.76-3.56
			c-0.5-2.37,0.48-4.38,2.58-5.32c2.2-0.98,4.13-0.36,5.85,1.73c0.4,0.48,1.14,0.96,1.73,0.96c5.93,0.07,11.87,0.1,17.8,0.01
			c2.18-0.03,4.12-0.78,5.3-3.22C94.81,90.29,93.28,90.29,91.4,90.29z M93.49,59.7c-0.86-9.63-11.41-22.96-27.78-22.62
			c-16.63,0.34-26.72,14.3-27.16,24.11c1.57-0.49,3.14-1.27,4.78-1.44c3.6-0.37,7.24-0.37,10.85-0.66
			c3.83-0.31,7.71-0.44,11.44-1.26c3.97-0.88,6.24-3.76,6.69-7.91c0.12-1.09,0.32-2.17,0.5-3.32c1.95,0,3.78,0,5.81,0
			c0.12,1.15,0.26,2.23,0.36,3.32c0.38,4.44,2.5,7.24,6.51,8.23C88.1,58.8,90.79,59.19,93.49,59.7z M97.77,68.39
			c0,5.4,0,10.54,0,15.64c1.06,0,1.92,0,2.84,0c0-5.27,0-10.41,0-15.64C99.6,68.39,98.74,68.39,97.77,68.39z"/>
		<path fill="#B4B4B4" d="M55.39,80.81c-2.66,0.04-4.66-1.91-4.69-4.57c-0.03-2.55,1.87-4.51,4.42-4.58
			c2.75-0.07,4.69,1.73,4.76,4.43C59.94,78.8,58.06,80.77,55.39,80.81z"/>
		<path fill="#B4B4B4" d="M77.11,80.81c-2.68-0.04-4.52-2-4.47-4.73c0.05-2.69,1.99-4.49,4.76-4.41c2.54,0.07,4.42,2.03,4.42,4.59
			C81.82,78.87,79.76,80.85,77.11,80.81z"/>
	</g>
</g>
</svg>
