<?xml version="1.0" encoding="utf-8"?>
<!-- Generator: Adobe Illustrator 23.1.1, SVG Export Plug-In . SVG Version: 6.00 Build 0)  -->
<svg version="1.2" baseProfile="tiny" id="圖層_1"
	 xmlns="http://www.w3.org/2000/svg" xmlns:xlink="http://www.w3.org/1999/xlink" x="0px" y="0px" viewBox="0 0 135.79 135.79"
	 xml:space="preserve">
<g>
	<g>
		<path fill="#EEEFEF" d="M67.89,2c36.33,0,65.89,29.56,65.89,65.89c0,36.33-29.56,65.89-65.89,65.89C31.56,133.79,2,104.23,2,67.89
			C2,31.56,31.56,2,67.89,2 M67.89,0C30.4,0,0,30.4,0,67.89c0,37.5,30.4,67.89,67.89,67.89c37.5,0,67.89-30.4,67.89-67.89
			C135.79,30.4,105.39,0,67.89,0L67.89,0z"/>
	</g>
	<g>
		<path fill="#B4B4B4" d="M39.74,85.16c0.27-0.31,0.45-0.57,0.88-0.47c0.17,0.04,0.38-0.09,0.56-0.16c0.18-0.08,0.35-0.22,0.54-0.26
			c0.86-0.22,1.31-0.82,1.56-1.63c0.33-1.08,0.42-2.18,0.33-3.3c-0.06-0.74-0.27-0.94-0.99-0.87c-1.34,0.12-2.67,0.37-4.02,0.43
			c-2.01,0.09-3.96,0.54-5.92,0.93c-0.8,0.16-1.63,0.22-2.44,0.25c-0.22,0.01-0.49-0.23-0.67-0.42c-0.23-0.26-0.4-0.58-0.59-0.88
			c-0.29-0.46-0.15-0.71,0.41-0.72c1.03-0.01,2.06,0.03,3.08-0.01c0.61-0.03,1.22-0.17,1.84-0.26c0.12-0.02,0.23-0.04,0.35-0.04
			c1.56-0.06,3.12-0.12,4.69-0.17c0.32-0.01,0.64,0.04,0.96,0.04c0.8-0.01,1.6,0.01,2.39-0.05c0.5-0.04,0.93-0.59,0.93-1.1
			c0-0.42-0.03-0.84-0.06-1.26c-0.05-0.68-0.27-0.9-0.96-0.87c-0.74,0.02-1.48,0.1-2.22,0.15c-0.62,0.04-1.24,0.07-1.86,0.07
			c-0.14,0-0.29-0.12-0.43-0.18c0.1-0.13,0.16-0.32,0.29-0.38c0.91-0.43,1.88-0.61,2.89-0.49c0.53,0.06,1.06,0.18,1.6,0.19
			c0.6,0.01,0.76-0.21,0.77-0.8c0-0.4,0-0.81,0-1.21c0-0.82-0.42-1.2-1.23-1.09c-2.18,0.31-4.36,0.66-6.54,0.94
			c-0.66,0.08-1.34,0.01-2-0.05c-0.18-0.02-0.4-0.2-0.5-0.37c-0.13-0.21-0.09-0.44,0.26-0.4c0.08,0.01,0.16,0.03,0.24,0.01
			c0.92-0.18,1.84-0.35,2.76-0.54c0.66-0.13,0.78-0.29,0.78-0.95c0-2.12,0.01-4.25-0.01-6.37c0-0.38-0.07-0.77-0.15-1.14
			c-0.09-0.42,0.01-0.59,0.43-0.53c0.34,0.05,0.7,0.15,0.99,0.33c0.7,0.44,1.46,0.58,2.26,0.59c1.51,0.02,3.02,0.04,4.54,0.08
			c0.83,0.02,1.55-0.24,2.22-0.69c0.46-0.31,0.92-0.63,1.38-0.93c0.37-0.24,0.74-0.49,1.14-0.68c0.12-0.06,0.33,0,0.48,0.07
			c0.7,0.31,1.4,0.64,2.09,0.97c0.58,0.28,0.63,0.42,0.46,1.06c-0.05,0.19-0.11,0.39-0.13,0.59c-0.04,0.48-0.29,0.84-0.7,1.04
			c-0.42,0.2-0.41,0.49-0.23,0.82c0.13,0.25,0.29,0.5,0.45,0.73c0.22,0.31,0.2,0.49-0.22,0.52c-0.87,0.07-1.74,0.16-2.62,0.2
			c-1.43,0.07-2.86,0.08-4.29,0.16c-0.89,0.05-1.77,0.19-2.65,0.27c-0.18,0.02-0.36-0.04-0.54-0.06c-0.01-0.05-0.02-0.11-0.03-0.16
			c0.37-0.09,0.73-0.23,1.11-0.26c1.57-0.14,3.15-0.22,4.72-0.36c1.07-0.09,1.73-1.07,1.47-2.14c-0.18-0.77-0.42-0.8-1.15-1.09
			c-0.87-0.33-1.55-0.14-2.3,0.23c-0.23,0.11-0.52,0.1-0.79,0.12c-1.36,0.07-2.72,0.13-4.08,0.2c-0.2,0.01-0.39,0.09-0.59,0.14
			c-0.4,0.12-0.64,0.36-0.61,0.81c0,0.08-0.01,0.17-0.01,0.25c-0.06,1.56,0.25,1.95,1.91,2.2c-0.89,0.11-1.45,0.51-1.86,1.12
			c-0.14,0.21-0.19,0.47-0.32,0.69c-0.12,0.21-0.3,0.39-0.42,0.6c-0.12,0.2-0.32,0.46-0.26,0.62c0.06,0.17,0.37,0.37,0.57,0.37
			c0.95-0.01,1.91,0,2.85-0.14c2.02-0.3,4.04-0.65,6.05-1.04c0.59-0.12,1.15-0.42,1.71-0.68c1.05-0.47,2.08-0.99,3.28-0.85
			c0.11,0.01,0.25,0.03,0.33,0.1c0.95,0.79,1.75,1.7,2.46,2.84c-0.29,0.07-0.5,0.17-0.72,0.17c-0.87,0.01-1.74-0.04-2.61-0.03
			c-1.06,0.01-2.12,0.05-3.18,0.09c-0.44,0.02-0.88,0.04-1.31,0.09c-0.99,0.13-1.32,0.52-1.33,1.53c-0.01,1.53,0.23,1.79,1.74,1.71
			c0.53-0.02,1.06-0.15,1.59-0.23c0.07-0.01,0.14-0.06,0.19-0.04c0.77,0.21,1.2-0.26,1.6-0.79c0.67-0.87,1.2-0.96,2.12-0.35
			c0.28,0.18,0.58,0.32,0.83,0.53c0.17,0.15,0.4,0.42,0.36,0.57c-0.06,0.21-0.31,0.44-0.53,0.51c-0.35,0.1-0.73,0.08-1.1,0.1
			c-1.94,0.11-3.89,0.19-5.83,0.32c-0.79,0.05-0.97,0.23-1.06,1c-0.07,0.54-0.05,1.11,0,1.66c0.06,0.56,0.39,0.8,0.97,0.79
			c1.62-0.04,3.23-0.07,4.85-0.14c0.81-0.04,1.44-0.53,2.03-1.03c0.37-0.31,0.74-0.65,1.05-1.02c0.43-0.51,0.96-0.56,1.5-0.36
			c0.37,0.14,0.71,0.37,1.02,0.63c0.45,0.38,0.88,0.78,1.26,1.23c0.18,0.21,0.33,0.53,0.31,0.79c-0.01,0.14-0.41,0.36-0.63,0.36
			c-0.6-0.01-1.19-0.12-1.79-0.18c-0.36-0.04-0.72-0.11-1.07-0.08c-1.03,0.1-2.06,0.33-3.09,0.36c-1.95,0.06-3.91,0.02-5.86,0.02
			c-0.65,0-0.8,0.13-0.88,0.76c-0.09,0.69-0.22,1.39-0.26,2.08c-0.03,0.5,0.04,1.01,0.09,1.52c0.15,1.35-0.45,2.49-1.08,3.6
			c-0.25,0.44-0.53,0.88-0.89,1.21c-0.34,0.32-0.79,0.59-1.24,0.73c-0.89,0.27-1.3,0.01-1.47-0.91c-0.14-0.79-0.71-1.14-1.32-1.48
			C40.36,85.42,40.07,85.32,39.74,85.16z"/>
		<path fill="#B4B4B4" d="M42.13,49.17c0.31,0.08,0.53,0.14,0.74,0.2c0.83,0.27,1.65,0.54,2.47,0.81c0.1,0.03,0.2,0.05,0.29,0.08
			c1.36,0.37,1.5,0.67,1.21,2.06c-0.24,1.13-0.44,2.28-0.52,3.43c-0.08,1.16,0.38,1.56,1.54,1.49c0.43-0.02,0.89-0.07,1.28-0.24
			c0.31-0.13,0.61-0.42,0.77-0.72c0.51-0.92,0.98-1.87,1.42-2.83c0.19-0.42,0.27-0.88,0.41-1.32c0.1-0.3,0.15-0.67,0.36-0.86
			c0.21-0.19,0.64-0.35,0.88-0.26c0.82,0.31,1.61,0.72,2.39,1.12c0.71,0.37,0.7,0.63,0.07,1.12c-0.97,0.74-1.92,1.51-2.88,2.26
			c-0.13,0.1-0.31,0.21-0.36,0.35c-0.11,0.36-0.25,0.75-0.19,1.1c0.03,0.15,0.54,0.28,0.83,0.29c1.18,0.06,2.27-0.22,3.15-1.08
			c0.08-0.08,0.24-0.07,0.36-0.12c0.12-0.05,0.31-0.11,0.34-0.2c0.11-0.37,0.37-0.33,0.65-0.31c1.08,0.1,1.89,0.62,2.52,1.49
			c0.33,0.46,0.72,0.89,1.12,1.3c0.57,0.57,0.25,2.18-0.54,2.31c-1.34,0.22-2.51,0.84-3.76,1.28c-0.09,0.03-0.19,0.06-0.4,0.12
			c0.08-0.37,0.12-0.67,0.2-0.95c0.14-0.47,0.34-0.92,0.46-1.39c0.25-0.95-0.12-1.47-1.1-1.53c-0.56-0.03-1.13-0.01-1.69-0.03
			c-1.98-0.07-3.94,0.13-5.91,0.33c-1.45,0.15-2.93,0.11-4.39,0.18c-1.93,0.1-3.86,0.2-5.79,0.35c-0.76,0.06-1.52,0.22-2.28,0.37
			c-0.93,0.18-1.19,0.48-1.33,1.42c-0.01,0.06-0.02,0.14-0.05,0.19c-0.57,0.7-1.13,1.42-1.74,2.09c-0.44,0.48-0.94,0.91-1.45,1.32
			c-0.19,0.15-0.54,0.29-0.71,0.21c-0.2-0.1-0.35-0.43-0.39-0.68c-0.16-1.17,0.43-2.18,0.72-3.27c0.38-1.4,0.9-2.79,0.78-4.29
			c-0.01-0.1,0.06-0.22,0.13-0.29c0.02-0.02,0.18,0.05,0.25,0.11c0.08,0.06,0.16,0.14,0.19,0.23c0.43,1.01,1.38,1.24,2.29,1.55
			c0.88,0.3,1.73,0.08,2.58-0.11c0.19-0.04,0.47-0.33,0.46-0.49c-0.02-1.69,0.29-3.4-0.13-5.08c-0.11-0.45-0.33-0.87-0.5-1.31
			c-0.09-0.23-0.17-0.45-0.25-0.68c0.04-0.03,0.08-0.05,0.12-0.08c0.21,0.18,0.45,0.34,0.64,0.54c0.61,0.65,1.19,1.33,1.79,1.99
			c0.62,0.68,1.25,1.35,1.88,2.02c0.62,0.66,0.69,1.15,0.26,1.92c-0.27,0.47-0.08,0.94,0.44,1.05c0.95,0.22,1.54-0.33,1.82-1.24
			c0.22-0.7-0.11-1.24-0.13-1.85C43.43,52.75,42.76,51.04,42.13,49.17z"/>
		<path fill="#B4B4B4" d="M37.53,74.49c-1.07,0.67-4.02,0.69-4.58,0.04c0.18-0.07,0.33-0.19,0.49-0.2c1.17-0.07,2.33-0.13,3.5-0.16
			C37.12,74.17,37.3,74.36,37.53,74.49z"/>
	</g>
	<g>
		<path fill="#B4B4B4" d="M86.17,69.66c0.24,0.07,0.47,0.21,0.71,0.2c0.74-0.02,1.48-0.08,2.22-0.13c0.15-0.01,0.31-0.06,0.45-0.02
			c0.71,0.2,1.33-0.02,1.99-0.27c0.4-0.15,0.88-0.08,1.32-0.11c1.29-0.1,1.81,0.81,2.31,1.75c0.09,0.17,0.22,0.35,0.37,0.46
			c0.41,0.31,0.5,0.69,0.39,1.16c-0.02,0.07-0.03,0.13-0.06,0.19c-0.86,1.6-0.63,3.32-0.47,5c0.15,1.59,0.25,3.18,0.23,4.78
			c-0.02,1.19-0.07,2.38-0.12,3.56c-0.01,0.16-0.07,0.36-0.19,0.45c-0.63,0.49-1.27,0.97-1.94,1.41c-0.39,0.25-0.7,0.05-0.77-0.39
			c-0.11-0.75-0.17-1.5-0.24-2.26c-0.08-0.85-0.19-1.7-0.23-2.55c-0.03-0.48,0.02-0.98,0.09-1.46c0.06-0.46-0.11-0.77-0.44-1.05
			c-0.66-0.57-0.67-0.74-0.08-1.39c0.3-0.34,0.4-0.69,0.42-1.14c0.04-0.97,0.19-1.94,0.21-2.91c0.02-0.74-0.09-1.48-0.16-2.21
			c-0.04-0.5-0.09-1.01-0.18-1.5c-0.03-0.15-0.18-0.35-0.32-0.4c-0.28-0.09-0.59-0.14-0.89-0.13c-2.07,0.05-4.14,0.1-6.21,0.19
			c-0.85,0.04-1.71,0.18-2.55,0.3c-0.79,0.12-1.03,0.49-0.88,1.26c0.02,0.08,0.03,0.17,0.04,0.25c0.14,1.1,0.28,1.21,1.39,1.11
			c0.88-0.08,1.77-0.11,2.65-0.22c0.61-0.08,1.21-0.26,1.82-0.39c1.13-0.23,2.25-0.09,3.37,0.04c0,0.04,0,0.09,0.01,0.13
			c-1.29,0.15-2.58,0.27-3.86,0.44c-1.37,0.18-2.74,0.39-4.1,0.63c-0.98,0.17-1.28,0.64-1.13,1.66c0.16,1.15,0.61,1.59,1.61,1.49
			c0.5-0.05,0.98-0.21,1.47-0.3c0.77-0.15,1.53-0.34,2.31-0.44c0.82-0.1,1.62-0.13,2.39-0.52c0.42-0.22,0.96-0.2,1.47-0.29
			c0.09,0.6-0.41,0.82-0.74,0.8c-0.98-0.07-1.85,0.35-2.78,0.49c-1.56,0.24-3.11,0.52-4.65,0.82c-0.82,0.16-0.86,0.25-0.81,1.07
			c0.04,0.66,0.06,1.31,0.12,1.97c0.06,0.58,0.38,0.73,0.97,0.72c0.59-0.02,1.13-0.06,1.59-0.48c0.07-0.06,0.19-0.06,0.29-0.08
			c1.63-0.39,3.26-0.78,4.89-1.16c0.19-0.04,0.38-0.07,0.57-0.11c0.02,0.04,0.04,0.08,0.06,0.12c-0.22,0.16-0.43,0.36-0.68,0.46
			c-0.57,0.24-1.17,0.41-1.75,0.64c-0.5,0.2-0.98,0.43-1.47,0.64c-0.68,0.29-1.37,0.56-2.03,0.88c-0.53,0.25-1.05,0.51-1.54,0.82
			c-0.44,0.27-0.71,0.16-0.8-0.35c-0.03-0.19-0.15-0.37-0.23-0.56c-0.16,0.16-0.34,0.3-0.46,0.48c-0.1,0.15-0.19,0.35-0.17,0.52
			c0.06,0.51-0.25,0.66-0.64,0.8c-0.89,0.3-1.76,0.67-2.66,0.91c-0.26,0.07-0.68-0.1-0.89-0.3c-0.36-0.36-0.62-0.82-1.02-1.37
			c0.6-0.21,1.08-0.48,1.59-0.55c1.65-0.21,1.9-0.35,2.02-1.98c0.13-1.76,0.27-3.55,0.1-5.29c-0.11-1.12-0.15-2.24-0.24-3.35
			c-0.09-0.97-0.5-1.29-1.46-1.45c-0.47-0.08-0.89-0.42-1.33-0.64c0-0.06-0.01-0.12-0.01-0.18c0.22-0.08,0.44-0.21,0.66-0.22
			c0.47-0.02,0.94,0.05,1.41,0.04c0.45-0.01,0.9-0.08,1.35-0.1c0.28-0.01,0.56,0,0.83,0.01c0.07,0,0.13,0.03,0.2,0.03
			c1,0,2,0.02,3-0.01c0.21-0.01,0.5-0.17,0.61-0.34c0.4-0.65,0.99-0.93,1.69-1.17c1.1-0.37,2.11-0.95,2.95-1.78
			c0.25-0.25,0.54-0.45,0.82-0.67c0.8-0.64,0.94-1.29,0.49-2.22c-0.24-0.5-0.49-1-0.71-1.5c-0.05-0.12-0.05-0.26-0.09-0.49
			c1.66-0.31,3.28-0.67,4.92-0.9c1.09-0.15,1.7-0.84,2.22-1.65c0.26-0.41-0.05-0.82-0.56-0.85c-0.22-0.01-0.44-0.01-0.65-0.07
			c-1.1-0.33-1.18-0.45-1.18-1.62c0-0.98,0-1.95,0-2.93c0-0.78-0.28-1.04-1.04-0.91c-0.58,0.1-1.15,0.26-1.72,0.41
			c-0.1,0.03-0.21,0.16-0.24,0.26c-0.34,1.11-0.65,2.22-0.99,3.32c-0.37,1.23-0.86,2.44-1.52,3.52c-0.38,0.61-0.89,1.17-1.25,1.82
			c-0.03,0.05-0.11,0.07-0.3,0.06c0.04-0.21,0.04-0.44,0.13-0.64c1.34-2.88,1.82-5.86,1.16-8.99c-0.11-0.53-0.38-1.03-0.61-1.63
			c0.21,0.05,0.36,0.06,0.47,0.12c0.35,0.19,0.73,0.37,1.04,0.62c0.63,0.5,1.27,0.66,2.07,0.43c0.54-0.16,1.13-0.17,1.7-0.16
			c0.58,0.01,0.98-0.22,1.37-0.62c0.24-0.25,0.62-0.62,0.87-0.58c0.54,0.09,1.06,0.39,1.55,0.66c0.13,0.08,0.19,0.39,0.19,0.59
			c-0.01,0.35-0.08,0.7-0.17,1.04c-0.23,0.85-0.48,1.7-0.72,2.55c-0.15,0.54,0.45,1.22,1,1.12c1.37-0.25,2.32-1.03,2.93-2.28
			c0.09-0.18,0.33-0.29,0.51-0.43c0.09,0.15,0.24,0.3,0.26,0.45c0.05,0.64,0.41,1.11,0.79,1.6c0.24,0.32,0.42,0.72,0.5,1.11
			c0.07,0.34-0.13,0.55-0.56,0.58c-0.92,0.06-1.84,0.16-2.75,0.33c-0.36,0.07-0.67,0.37-1.01,0.56c0.22,0.31,0.41,0.62,0.65,0.91
			c0.22,0.27,0.52,0.48,0.73,0.76c0.43,0.57,0.36,0.99-0.2,1.43c-0.09,0.07-0.19,0.14-0.29,0.2c-1.05,0.76-2.11,1.52-3.15,2.29
			c-0.46,0.34-0.4,0.7,0.1,1.02c2.11,1.34,4.51,1.81,6.9,2.33c0.92,0.2,1.82,0.45,2.73,0.68c0.14,0.04,0.29,0.11,0.4,0.2
			c0.09,0.08,0.22,0.24,0.19,0.31c-0.04,0.12-0.19,0.23-0.31,0.29c-0.71,0.32-1.44,0.63-2.15,0.95c-0.31,0.14-0.6,0.31-0.91,0.44
			c-0.61,0.26-1.21,0.29-1.76-0.15c-0.39-0.31-0.81-0.41-1.31-0.4c-0.24,0-0.53-0.17-0.71-0.36c-0.37-0.39-0.73-0.65-1.3-0.59
			c-0.2,0.02-0.46-0.16-0.64-0.31c-0.27-0.23-0.47-0.54-0.74-0.75c-0.17-0.14-0.43-0.17-0.65-0.25c-0.15-0.05-0.32-0.07-0.46-0.15
			c-0.69-0.38-1.37-0.79-2.07-1.17c-0.15-0.08-0.39-0.13-0.55-0.08c-2.15,0.72-4.1,1.84-6.08,2.91c-0.07,0.04-0.13,0.09-0.19,0.14
			C86.18,69.53,86.17,69.6,86.17,69.66z M94.33,61.99c-1.32,0.18-2.54,0.23-3.73,0.63c0.17,0.36,1.68,1.26,1.97,1.23
			c0.07-0.01,0.14-0.02,0.2-0.04C93.52,63.45,93.98,62.85,94.33,61.99z"/>
		<path fill="#B4B4B4" d="M76.92,49.35c1.62-0.48,3.13-0.8,4.68-0.23c0.84,0.31,1.03,0.77,0.38,1.37c-0.92,0.85-0.93,1.83-0.73,2.91
			c0.03,0.18,0.06,0.36,0.11,0.54c0.26,0.99,0.78,1.36,1.9,0.74c0.59-0.33,1.21-0.68,1.39-1.45c0.03-0.14,0.19-0.25,0.34-0.42
			c0.47,0.96,0.67,1.9,0.71,2.88c0.03,0.86,0.04,1.71,0.44,2.51c0.16,0.31,0.1,0.62-0.16,0.88c-0.27,0.26-0.29,0.56-0.1,0.87
			c0.18,0.29,0.02,0.54-0.03,0.83c-0.13,0.7-0.12,1.43-0.09,2.14c0.04,0.92,0.15,1.84,0.23,2.76c0.03,0.38-0.13,0.55-0.5,0.45
			c-0.55-0.15-1.04,0-1.56,0.15c-1.57,0.45-3.18,0.71-4.82,0.77c-0.81,0.03-1.62,0.23-2.43,0.38c-0.58,0.11-0.83,0.5-1.01,1.06
			c-0.32,1.02-0.78,1.99-1.11,3.01c-0.36,1.13-1.21,1.82-2.04,2.55c-0.62,0.55-1.25,1.08-1.86,1.63c-0.26,0.24-0.51,0.3-0.85,0.02
			c0.06-0.11,0.1-0.26,0.18-0.36c0.3-0.36,0.58-0.75,0.93-1.06c0.98-0.87,1.68-1.95,2.12-3.15c0.3-0.81,0.45-1.7,0.49-2.56
			c0.09-1.96,0.06-3.93,0.08-5.9c0-0.35-0.02-0.7-0.02-1.05c0.01-0.28,0.11-0.46,0.44-0.34c1.53,0.55,3.06,0.41,4.63,0.14
			c1.13-0.19,2.31-0.1,3.47-0.13c0.6-0.01,1.5-0.73,1.61-1.31c0.02-0.11-0.03-0.27-0.11-0.36c-0.34-0.39-0.89-0.44-1.4-0.32
			c-0.72,0.17-1.46,0.25-2.19,0.31c-2.08,0.17-4.15,0.33-6.23,0.44c-0.34,0.02-0.74-0.18-1.03-0.39c-0.23-0.16-0.22-0.46,0.16-0.54
			c0.05-0.01,0.1-0.04,0.15-0.04c1.18-0.12,2.37-0.22,3.55-0.35c0.45-0.05,0.91-0.11,1.32-0.27c0.25-0.1,0.5-0.35,0.63-0.6
			c0.29-0.57,0.01-1.03-0.63-1.02c-1.33,0.02-2.66,0.09-3.99,0.16c-0.55,0.03-1.1,0.12-1.66,0.16c-0.47,0.04-0.99-0.28-1.19-0.7
			c-0.15-0.32-0.08-0.49,0.31-0.53c1.88-0.18,3.75-0.36,5.62-0.58c0.42-0.05,0.83-0.26,1.23-0.42c0.09-0.04,0.19-0.17,0.2-0.26
			c0.15-1.14,0.4-2.29,0.06-3.44c-0.2-0.69-0.45-1.35-1.29-1.51C77.17,49.68,77.09,49.52,76.92,49.35z M82.43,61.95
			c-0.35,0.05-0.7,0.07-1.05,0.15c-0.71,0.15-0.85,0.35-0.85,1.07c0,0.44-0.04,0.88,0.01,1.31c0.05,0.42,0.18,0.85,0.32,1.25
			c0.05,0.14,0.28,0.33,0.39,0.3c0.59-0.13,1.16-0.3,1.74-0.48c0.07-0.02,0.15-0.15,0.16-0.24c0.11-0.84,0.27-1.69,0.27-2.54
			C83.44,62.11,83.11,61.92,82.43,61.95z M78.58,63.75c0.02-1.11-0.1-1.22-1.18-1.02c-0.08,0.01-0.17,0.03-0.25,0.05
			c-0.49,0.1-0.84,0.36-0.87,0.9c-0.04,0.62-0.08,1.24-0.09,1.86c0,0.45,0.27,0.81,0.68,0.9c0.23,0.05,0.58-0.11,0.79-0.28
			C78.44,65.55,78.55,64.66,78.58,63.75z M83.44,56.04c-0.48,0.1-1.07,0.21-1.65,0.36c-0.12,0.03-0.32,0.19-0.31,0.26
			c0.12,0.62,0.22,1.25,0.43,1.84c0.13,0.35,0.51,0.5,0.89,0.25c0.34-0.22,0.7-0.42,0.98-0.7c0.39-0.38,0.74-0.81,1.06-1.26
			c0.23-0.32,0.08-0.58-0.32-0.64C84.2,56.1,83.88,56.08,83.44,56.04z"/>
		<path fill="#B4B4B4" d="M67.29,78.07c0.08-0.52,0.86-1.31,1.16-1.31c0.07,0,0.17,0.05,0.21,0.1c0.03,0.05,0.03,0.19-0.01,0.22
			C68.23,77.4,67.8,77.7,67.29,78.07z"/>
	</g>
</g>
</svg>
