<?xml version="1.0" encoding="utf-8"?>
<!-- Generator: Adobe Illustrator 23.1.1, SVG Export Plug-In . SVG Version: 6.00 Build 0)  -->
<svg version="1.2" baseProfile="tiny" id="圖層_1"
	 xmlns="http://www.w3.org/2000/svg" xmlns:xlink="http://www.w3.org/1999/xlink" x="0px" y="0px" viewBox="0 0 550.79 10.66"
	 xml:space="preserve">
<path fill="#DA3B2B" d="M550.29,0.13c-0.31-0.18-0.69-0.18-1,0l-6.41,3.7h-3.05c-0.83,0-1.5,0.67-1.5,1.5s0.67,1.5,1.5,1.5h3.04
	l6.41,3.7c0.15,0.09,0.33,0.13,0.5,0.13s0.35-0.04,0.5-0.13c0.31-0.18,0.5-0.51,0.5-0.87V1C550.79,0.64,550.6,0.31,550.29,0.13z
	 M5.5,3.83h-4C0.67,3.83,0,4.5,0,5.33s0.67,1.5,1.5,1.5h4c0.83,0,1.5-0.67,1.5-1.5S6.33,3.83,5.5,3.83z M180.95,3.83h-7.98
	c-0.83,0-1.5,0.67-1.5,1.5s0.67,1.5,1.5,1.5h7.98c0.83,0,1.5-0.67,1.5-1.5S181.78,3.83,180.95,3.83z M149.05,3.83h-7.98
	c-0.83,0-1.5,0.67-1.5,1.5s0.67,1.5,1.5,1.5h7.98c0.83,0,1.5-0.67,1.5-1.5S149.88,3.83,149.05,3.83z M165,3.83h-7.98
	c-0.83,0-1.5,0.67-1.5,1.5s0.67,1.5,1.5,1.5H165c0.83,0,1.5-0.67,1.5-1.5S165.83,3.83,165,3.83z M212.85,3.83h-7.98
	c-0.83,0-1.5,0.67-1.5,1.5s0.67,1.5,1.5,1.5h7.98c0.83,0,1.5-0.67,1.5-1.5S213.68,3.83,212.85,3.83z M244.76,3.83h-7.98
	c-0.83,0-1.5,0.67-1.5,1.5s0.67,1.5,1.5,1.5h7.98c0.83,0,1.5-0.67,1.5-1.5S245.58,3.83,244.76,3.83z M228.81,3.83h-7.98
	c-0.83,0-1.5,0.67-1.5,1.5s0.67,1.5,1.5,1.5h7.98c0.83,0,1.5-0.67,1.5-1.5S229.63,3.83,228.81,3.83z M196.9,3.83h-7.98
	c-0.83,0-1.5,0.67-1.5,1.5s0.67,1.5,1.5,1.5h7.98c0.83,0,1.5-0.67,1.5-1.5S197.73,3.83,196.9,3.83z M260.71,3.83h-7.98
	c-0.83,0-1.5,0.67-1.5,1.5s0.67,1.5,1.5,1.5h7.98c0.83,0,1.5-0.67,1.5-1.5S261.53,3.83,260.71,3.83z M37.4,3.83h-7.98
	c-0.83,0-1.5,0.67-1.5,1.5s0.67,1.5,1.5,1.5h7.98c0.83,0,1.5-0.67,1.5-1.5S38.23,3.83,37.4,3.83z M53.35,3.83h-7.98
	c-0.83,0-1.5,0.67-1.5,1.5s0.67,1.5,1.5,1.5h7.98c0.83,0,1.5-0.67,1.5-1.5S54.18,3.83,53.35,3.83z M21.45,3.83h-7.98
	c-0.83,0-1.5,0.67-1.5,1.5s0.67,1.5,1.5,1.5h7.98c0.83,0,1.5-0.67,1.5-1.5S22.28,3.83,21.45,3.83z M69.3,3.83h-7.98
	c-0.83,0-1.5,0.67-1.5,1.5s0.67,1.5,1.5,1.5h7.98c0.83,0,1.5-0.67,1.5-1.5S70.13,3.83,69.3,3.83z M101.2,3.83h-7.98
	c-0.83,0-1.5,0.67-1.5,1.5s0.67,1.5,1.5,1.5h7.98c0.83,0,1.5-0.67,1.5-1.5S102.03,3.83,101.2,3.83z M117.15,3.83h-7.98
	c-0.83,0-1.5,0.67-1.5,1.5s0.67,1.5,1.5,1.5h7.98c0.83,0,1.5-0.67,1.5-1.5S117.98,3.83,117.15,3.83z M133.1,3.83h-7.98
	c-0.83,0-1.5,0.67-1.5,1.5s0.67,1.5,1.5,1.5h7.98c0.83,0,1.5-0.67,1.5-1.5S133.93,3.83,133.1,3.83z M85.25,3.83h-7.98
	c-0.83,0-1.5,0.67-1.5,1.5s0.67,1.5,1.5,1.5h7.98c0.83,0,1.5-0.67,1.5-1.5S86.08,3.83,85.25,3.83z M388.31,3.83h-7.98
	c-0.83,0-1.5,0.67-1.5,1.5s0.67,1.5,1.5,1.5h7.98c0.83,0,1.5-0.67,1.5-1.5S389.14,3.83,388.31,3.83z M484.01,3.83h-7.98
	c-0.83,0-1.5,0.67-1.5,1.5s0.67,1.5,1.5,1.5h7.98c0.83,0,1.5-0.67,1.5-1.5S484.84,3.83,484.01,3.83z M468.06,3.83h-7.98
	c-0.83,0-1.5,0.67-1.5,1.5s0.67,1.5,1.5,1.5h7.98c0.83,0,1.5-0.67,1.5-1.5S468.89,3.83,468.06,3.83z M452.11,3.83h-7.98
	c-0.83,0-1.5,0.67-1.5,1.5s0.67,1.5,1.5,1.5h7.98c0.83,0,1.5-0.67,1.5-1.5S452.94,3.83,452.11,3.83z M436.16,3.83h-7.98
	c-0.83,0-1.5,0.67-1.5,1.5s0.67,1.5,1.5,1.5h7.98c0.83,0,1.5-0.67,1.5-1.5S436.99,3.83,436.16,3.83z M531.86,3.83h-7.98
	c-0.83,0-1.5,0.67-1.5,1.5s0.67,1.5,1.5,1.5h7.98c0.83,0,1.5-0.67,1.5-1.5S532.69,3.83,531.86,3.83z M499.96,3.83h-7.98
	c-0.83,0-1.5,0.67-1.5,1.5s0.67,1.5,1.5,1.5h7.98c0.83,0,1.5-0.67,1.5-1.5S500.79,3.83,499.96,3.83z M420.21,3.83h-7.98
	c-0.83,0-1.5,0.67-1.5,1.5s0.67,1.5,1.5,1.5h7.98c0.83,0,1.5-0.67,1.5-1.5S421.04,3.83,420.21,3.83z M515.91,3.83h-7.98
	c-0.83,0-1.5,0.67-1.5,1.5s0.67,1.5,1.5,1.5h7.98c0.83,0,1.5-0.67,1.5-1.5S516.74,3.83,515.91,3.83z M372.36,3.83h-7.98
	c-0.83,0-1.5,0.67-1.5,1.5s0.67,1.5,1.5,1.5h7.98c0.83,0,1.5-0.67,1.5-1.5S373.19,3.83,372.36,3.83z M404.26,3.83h-7.98
	c-0.83,0-1.5,0.67-1.5,1.5s0.67,1.5,1.5,1.5h7.98c0.83,0,1.5-0.67,1.5-1.5S405.09,3.83,404.26,3.83z M292.61,3.83h-7.98
	c-0.83,0-1.5,0.67-1.5,1.5s0.67,1.5,1.5,1.5h7.98c0.83,0,1.5-0.67,1.5-1.5S293.44,3.83,292.61,3.83z M324.51,3.83h-7.98
	c-0.83,0-1.5,0.67-1.5,1.5s0.67,1.5,1.5,1.5h7.98c0.83,0,1.5-0.67,1.5-1.5S325.34,3.83,324.51,3.83z M308.56,3.83h-7.98
	c-0.83,0-1.5,0.67-1.5,1.5s0.67,1.5,1.5,1.5h7.98c0.83,0,1.5-0.67,1.5-1.5S309.39,3.83,308.56,3.83z M276.66,3.83h-7.98
	c-0.83,0-1.5,0.67-1.5,1.5s0.67,1.5,1.5,1.5h7.98c0.83,0,1.5-0.67,1.5-1.5S277.48,3.83,276.66,3.83z M356.41,3.83h-7.98
	c-0.83,0-1.5,0.67-1.5,1.5s0.67,1.5,1.5,1.5h7.98c0.83,0,1.5-0.67,1.5-1.5S357.24,3.83,356.41,3.83z M340.46,3.83h-7.98
	c-0.83,0-1.5,0.67-1.5,1.5s0.67,1.5,1.5,1.5h7.98c0.83,0,1.5-0.67,1.5-1.5S341.29,3.83,340.46,3.83z"/>
</svg>
