<?xml version="1.0" encoding="utf-8"?>
<!-- Generator: Adobe Illustrator 23.1.1, SVG Export Plug-In . SVG Version: 6.00 Build 0)  -->
<svg version="1.2" baseProfile="tiny" id="圖層_1"
	 xmlns="http://www.w3.org/2000/svg" xmlns:xlink="http://www.w3.org/1999/xlink" x="0px" y="0px" viewBox="0 0 135.79 135.79"
	 xml:space="preserve">
<g>
	<g>
		<path fill="#EEEFEF" d="M67.89,2c36.33,0,65.89,29.56,65.89,65.89c0,36.33-29.56,65.89-65.89,65.89C31.56,133.79,2,104.23,2,67.89
			C2,31.56,31.56,2,67.89,2 M67.89,0C30.4,0,0,30.4,0,67.89c0,37.5,30.4,67.89,67.89,67.89s67.89-30.4,67.89-67.89
			C135.79,30.4,105.39,0,67.89,0L67.89,0z"/>
	</g>
	<path fill="#B4B4B4" d="M80.33,111.76c-1.34-0.92-2.54-1.98-3.57-3.13c-0.42-0.48-0.92-0.7-1.57-0.7c-8.94,0.01-25.25,0.01-35.45,0
		h-2.34V41.24h54.58l0,19.11c0,4.02,0,12.24,0,15.33c0,0.28,0,1.12,0.98,1.49c0.66,0.25,1.3,0.55,1.98,0.86l0.55,0.25
		c0.22,0.1,0.42,0.21,0.66,0.33l1.77,0.9v-6.9c0-10.04,0-23.32,0-32.05c0-0.39-0.01-0.84-0.1-1.29c-0.52-2.42-2.48-3.98-5-3.98
		l-56.23,0c-1.83,0-3.28,0.76-4.31,2.27c-0.73,1.07-0.82,2.26-0.82,3.19l0,43.3l0,16.72c0,2.6,0,5.19,0,7.79
		c0.01,3.23,2.09,5.32,5.31,5.32c4.71,0,10.92,0,17.4,0c9.18,0,18.88,0,25.56,0c0.11,0,0.23-0.01,0.37-0.02l2.88-0.16l-2.35-1.71
		C80.51,111.89,80.43,111.82,80.33,111.76z M103.85,109.5c-1.12-1.15-2.27-2.28-3.41-3.42c-0.96-0.96-1.93-1.91-2.92-2.89
		c2.75-3.48,4.03-7.35,3.55-11.73c-0.48-4.38-2.48-7.97-5.91-10.7c-6.33-5.03-15.21-4.55-20.95,1.09
		c-5.69,5.58-6.4,14.39-1.61,20.78c2.48,3.31,5.77,5.41,9.84,6.13c4.77,0.85,9.1-0.21,12.9-3.37c0.41,0.43,0.81,0.85,1.22,1.26
		c1.66,1.67,3.32,3.33,4.99,4.99c0.43,0.43,0.94,0.69,1.56,0.53C104.35,111.84,104.76,110.42,103.85,109.5z M85.28,105.86
		c-6.97-0.01-12.67-5.72-12.67-12.7c0-6.99,5.73-12.71,12.71-12.69C92.31,80.5,98,86.19,97.99,93.17
		C97.99,100.16,92.26,105.87,85.28,105.86z M82.94,60.43c1.1-0.01,1.86-0.74,1.92-1.8c0.08-1.2-0.53-2.03-1.66-2.19
		c-0.46-0.06-0.92-0.05-1.39-0.05c-9.29,0-18.57,0-27.86,0c-2.45,0-4.89-0.01-7.34,0c-1.58,0.01-2.5,1.33-1.98,2.79
		c0.3,0.84,0.97,1.25,2.05,1.25c5.99,0,11.99,0,17.98,0c4.46,0,8.92,0,13.38,0C79.68,60.44,81.31,60.45,82.94,60.43z M62.58,68.51
		c-2.41-0.02-4.83,0-7.24,0c-2.91,0-5.82-0.01-8.73,0c-1.61,0.01-2.52,1.36-1.96,2.84c0.3,0.79,0.98,1.21,2.04,1.21
		c2.64,0.01,5.28,0,7.92,0c2.57,0,5.15,0,7.72,0c0.27,0,0.55,0,0.81-0.06c0.78-0.15,1.29-0.62,1.48-1.39
		C64.98,69.65,64.11,68.52,62.58,68.51z"/>
</g>
</svg>
