<?xml version="1.0" encoding="utf-8"?>
<!-- Generator: Adobe Illustrator 23.1.1, SVG Export Plug-In . SVG Version: 6.00 Build 0)  -->
<svg version="1.2" baseProfile="tiny" id="圖層_1"
	 xmlns="http://www.w3.org/2000/svg" xmlns:xlink="http://www.w3.org/1999/xlink" x="0px" y="0px" viewBox="0 0 39.13 35.63"
	 xml:space="preserve">
<g>
	<path fill="#FFFFFF" d="M39.12,9.56c-0.17-4.17-2.74-7.69-6.57-8.96c-4.13-1.36-7.76-0.4-10.88,2.59
		c-0.72,0.69-1.32,1.48-1.84,2.33c-0.03,0.05-0.07,0.1-0.12,0.18l-0.14,0.27l0,29.66c0,0,1.69-1.6,2.48-2.3
		c3.6-3.2,7.42-6.27,10.88-9.63C36.9,19.84,39.35,15.2,39.12,9.56z M19.31,5.53c-0.53-0.85-1.12-1.64-1.84-2.33
		c-3.11-3-6.75-3.96-10.88-2.59c-3.83,1.26-6.4,4.79-6.57,8.96C-0.22,15.2,2.23,19.84,6.2,23.7c3.46,3.37,7.28,6.43,10.88,9.63
		c0.79,0.7,2.48,2.3,2.48,2.3l0-29.66l-0.14-0.27C19.37,5.63,19.34,5.58,19.31,5.53z"/>
</g>
</svg>
