<?xml version="1.0" encoding="utf-8"?>
<!-- Generator: Adobe Illustrator 23.1.1, SVG Export Plug-In . SVG Version: 6.00 Build 0)  -->
<svg version="1.2" baseProfile="tiny" id="圖層_1"
	 xmlns="http://www.w3.org/2000/svg" xmlns:xlink="http://www.w3.org/1999/xlink" x="0px" y="0px" viewBox="0 0 94.8 25.49"
	 xml:space="preserve">
<g>
	<linearGradient id="SVGID_1_" gradientUnits="userSpaceOnUse" x1="47.3983" y1="28.0164" x2="47.3983" y2="-0.0628">
		<stop  offset="0" style="stop-color:#F7F8F8"/>
		<stop  offset="0.5117" style="stop-color:#C9CACA"/>
		<stop  offset="1" style="stop-color:#F7F8F8"/>
	</linearGradient>
	<path fill="url(#SVGID_1_)" d="M88.88,25.24H5.92c-3.12,0-5.67-2.55-5.67-5.67V5.92c0-3.12,2.55-5.67,5.67-5.67h82.96
		c3.12,0,5.67,2.55,5.67,5.67v13.65C94.55,22.69,92,25.24,88.88,25.24z"/>
	<path fill="none" stroke="#9FA0A0" stroke-width="0.5" stroke-miterlimit="10" d="M88.88,25.24H5.92c-3.12,0-5.67-2.55-5.67-5.67
		V5.92c0-3.12,2.55-5.67,5.67-5.67h82.96c3.12,0,5.67,2.55,5.67,5.67v13.65C94.55,22.69,92,25.24,88.88,25.24z"/>
</g>
<text transform="matrix(1 0 0 1 30.3993 19.2684)" fill="#3E3A39" font-family="'NotoSansCJKtc-Light-B5pc-H'" font-size="17px">搜尋</text>
</svg>
